<svg xmlns="http://www.w3.org/2000/svg" width="489" height="241" viewBox="0 0 489 241" version="1.1"><path d="M 25.239 49.950 C 22.346 50.409, 18.746 51.620, 17.239 52.642 C 14.528 54.481, 14.753 54.505, 39.732 55 L 64.964 55.500 66.713 58 C 68.442 60.472, 73.655 66.990, 105.894 107 C 114.979 118.275, 128.015 134.475, 134.863 143 C 141.712 151.525, 147.897 159.186, 148.609 160.025 C 149.714 161.328, 147.696 164.180, 134.817 179.525 C 126.520 189.411, 117.429 200.264, 114.616 203.641 C 111.802 207.019, 109.131 209.860, 108.680 209.954 C 108.229 210.048, 98.908 200.084, 87.967 187.812 C 66.588 163.833, 65.364 161.773, 70.500 158.408 C 72.726 156.949, 73.247 156.932, 75.260 158.251 C 76.503 159.065, 84.469 167.665, 92.964 177.361 C 101.458 187.058, 108.690 194.656, 109.034 194.246 C 109.378 193.836, 115.661 186.357, 122.997 177.626 C 132.749 166.017, 136.087 161.383, 135.417 160.379 C 134.912 159.625, 117.625 138.112, 97 112.573 L 59.500 66.139 42.250 66.069 L 25 66 25 141 C 25 214.667, 24.964 216.036, 23 218 C 20.406 220.594, 18.840 220.523, 16.180 217.692 L 14.012 215.384 13.756 135.442 C 13.508 58.052, 13.443 55.620, 11.727 59.274 C 10.068 62.803, 9.971 68.175, 10.227 142.274 C 10.493 219.444, 10.552 221.588, 12.500 224.895 C 17.186 232.851, 24.322 234.763, 33.670 230.568 L 39.600 227.907 45.050 230.443 C 48.047 231.839, 51.782 232.985, 53.349 232.990 C 57.857 233.006, 62.953 230.028, 65.812 225.708 C 68.318 221.920, 68.473 220.920, 69.033 204.854 C 69.622 187.955, 70.279 185.126, 73.342 186.301 C 74.155 186.613, 81.361 194.211, 89.356 203.187 C 97.351 212.162, 105.287 220.329, 106.992 221.336 C 111.798 224.175, 118.469 223.759, 123.065 220.333 C 125.156 218.775, 133.214 209.963, 140.972 200.750 C 148.730 191.537, 155.708 184, 156.479 184 C 157.251 184, 158.228 184.561, 158.652 185.246 C 159.075 185.931, 159.671 194.412, 159.976 204.092 C 160.509 220.998, 160.635 221.851, 163.176 225.690 C 168.266 233.381, 176.972 234.932, 185.050 229.586 C 189.921 226.362, 190.608 226.370, 195.514 229.704 C 198.818 231.948, 201.022 232.521, 208.497 233.078 C 213.448 233.446, 220.394 234.527, 223.932 235.478 C 229.484 236.972, 232.972 237.111, 249.432 236.493 C 259.919 236.099, 272.775 235.894, 278 236.038 C 289.512 236.354, 316.171 236.389, 328.500 236.104 C 333.450 235.990, 351.900 236.092, 369.500 236.331 C 401.765 236.770, 404.258 236.619, 415.930 233.507 C 422.254 231.820, 422.502 231.831, 430.930 234.140 C 436.894 235.774, 442.085 236.477, 448 236.451 C 457.395 236.411, 461.279 234.999, 465.007 230.270 C 469.107 225.070, 467.724 218.226, 456.060 186 C 444.312 153.540, 441.129 146.769, 436.046 143.428 C 428.122 138.220, 413.699 137.861, 406.256 142.687 C 404.068 144.106, 400.900 147.620, 399.107 150.618 C 397.337 153.578, 395.255 156, 394.481 156 C 393.708 156, 391.273 153.348, 389.072 150.106 C 386.157 145.814, 383.769 143.572, 380.285 141.856 C 375.808 139.652, 374.372 139.501, 358 139.511 C 348.375 139.516, 336.675 139.690, 332 139.896 C 327.325 140.103, 315.988 139.928, 306.807 139.507 C 293.116 138.881, 288.440 139.043, 280.807 140.411 C 273.369 141.744, 270.094 141.874, 264.500 141.059 C 260.650 140.498, 249.715 140.031, 240.199 140.020 L 222.898 140 221.449 136.532 C 220.280 133.734, 219.999 126.447, 219.994 98.782 C 219.991 79.288, 219.563 62.966, 219.001 60.943 C 217.888 56.939, 213.857 52.640, 209.764 51.094 C 205.535 49.496, 163.456 49.468, 158.175 51.059 C 152.159 52.871, 148.030 56.915, 131.689 77 C 116.754 95.356, 114.783 96.895, 110.780 93.330 C 109.650 92.324, 104.205 85.875, 98.681 79 C 81.138 57.166, 78.938 54.861, 73.097 52.187 C 68.050 49.876, 66.418 49.687, 49.091 49.411 C 38.866 49.248, 28.133 49.491, 25.239 49.950 M 142 68.161 C 136.225 75.353, 128.238 85.261, 124.250 90.179 C 119.189 96.420, 117 99.947, 117 101.860 C 117 105.297, 118.655 107, 121.996 107 C 124.171 107, 127.262 103.677, 141.046 86.518 L 157.500 66.036 175.500 66.018 L 193.500 65.999 193.182 140.279 L 192.865 214.558 195.005 217.279 C 197.577 220.549, 199.067 220.689, 201.595 217.896 C 203.426 215.873, 203.520 212.683, 204 136.146 C 204.330 83.624, 204.159 56.250, 203.500 55.765 C 202.950 55.361, 191.250 55.043, 177.500 55.057 L 152.500 55.084 142 68.161 M 42 146.917 C 42 214.667, 42.039 216.039, 44 218 C 46.477 220.477, 47.176 220.487, 50.139 218.089 L 52.500 216.178 53 161.473 L 53.500 106.768 79.515 137.134 C 107.423 169.709, 108.963 171.039, 112.508 165.627 C 114.971 161.869, 117.632 165.448, 77.479 118.500 C 71.364 111.350, 61.266 99.425, 55.038 92 C 48.811 84.575, 43.330 78.350, 42.858 78.167 C 42.386 77.983, 42 108.884, 42 146.917 M 155.750 99.674 C 143.962 114, 138 122.031, 138 123.584 C 138 126.034, 141.481 130, 143.631 130 C 144.320 130, 148.993 124.938, 154.014 118.750 C 159.036 112.563, 163.449 107.387, 163.822 107.250 C 164.195 107.112, 164.356 131.237, 164.179 160.861 L 163.858 214.723 166.271 217.529 C 168.970 220.667, 171.005 220.459, 173.381 216.804 C 174.666 214.827, 174.923 204.808, 175.189 146.250 C 175.394 101.186, 175.160 78.017, 174.500 78.051 C 173.950 78.079, 165.512 87.809, 155.750 99.674 M 154.736 144.598 C 153.762 145.571, 155.099 148, 156.607 148 C 157.373 148, 158 147.100, 158 146 C 158 144.117, 156.052 143.281, 154.736 144.598 M 70.361 146.502 C 70.044 147.328, 70.074 149.157, 70.427 150.565 C 70.948 152.640, 71.584 153.067, 73.776 152.813 C 77.083 152.431, 77.873 149.622, 75.433 146.926 C 73.346 144.620, 71.153 144.437, 70.361 146.502 M 273.073 147.635 C 271.076 150.173, 271 151.420, 271 181.468 L 271 212.667 274.667 216.333 L 278.333 220 297.641 220 L 316.949 220 318.392 217.209 C 319.186 215.674, 320.409 211.642, 321.109 208.249 C 322.275 202.606, 322.226 201.907, 320.537 200.041 C 318.868 198.196, 317.502 198, 306.345 198 L 294 198 294 182 L 294 166 308 166 C 321.727 166, 322 165.957, 322 163.816 C 322 159.508, 318.769 150.231, 316.367 147.640 L 313.919 145 294.532 145 L 275.145 145 273.073 147.635 M 328.073 147.635 C 326.076 150.173, 326 151.420, 326 181.468 L 326 212.667 329.667 216.333 L 333.333 220 352.641 220 L 371.949 220 373.392 217.209 C 374.186 215.674, 375.409 211.642, 376.109 208.249 C 377.275 202.606, 377.226 201.907, 375.537 200.041 C 373.868 198.196, 372.502 198, 361.345 198 L 349 198 349 182 L 349 166 363 166 C 376.727 166, 377 165.957, 377 163.816 C 377 159.508, 373.769 150.231, 371.367 147.640 L 368.919 145 349.532 145 L 330.145 145 328.073 147.635 M 404.541 146.250 C 404.323 146.938, 398.449 163.172, 391.488 182.328 C 376.682 223.065, 376.632 219.917, 392.089 219.968 C 401.362 219.999, 401.717 219.917, 402.818 217.500 C 403.940 215.038, 404.135 215, 415.729 215.017 C 426.953 215.034, 427.609 215.150, 429.855 217.517 C 432.037 219.818, 432.900 220, 441.605 220 C 446.772 220, 451 219.706, 451 219.346 C 451 217.529, 426.511 151.040, 424.814 148.250 L 422.837 145 413.887 145 C 407.605 145, 404.819 145.373, 404.541 146.250 M 218.250 146.723 L 215 147.127 215 181.908 C 215 214.334, 215.124 216.802, 216.829 218.345 C 218.408 219.775, 221.523 220, 239.706 220 C 255.340 220, 261.015 219.678, 261.766 218.750 C 262.322 218.063, 263.651 214.283, 264.719 210.352 C 266.525 203.708, 266.547 203.051, 265.029 201.038 C 263.491 199, 262.711 198.891, 251.776 199.186 L 240.156 199.500 239.779 196.250 L 239.402 193 252.701 193 L 266 193 266 184.655 C 266 173.107, 265.571 172.775, 251.178 173.186 L 240.156 173.500 239.782 170.276 L 239.408 167.052 253.094 166.776 L 266.779 166.500 264.533 158.717 C 263.298 154.437, 261.244 149.824, 259.969 148.467 C 257.659 146.008, 257.593 146.001, 239.576 146.160 C 229.634 146.248, 220.037 146.502, 218.250 146.723 M 274.655 148.829 C 273.190 150.448, 273 154.213, 273 181.629 C 273 204.384, 273.318 212.918, 274.200 213.800 C 275.051 214.651, 281.034 215, 294.751 215 L 314.102 215 315.439 211.750 C 316.175 209.963, 317.091 206.588, 317.476 204.250 L 318.176 200 304.088 200 L 290 200 290 180.500 L 290 161 304.079 161 L 318.159 161 317.497 157.750 C 317.133 155.963, 316.405 152.813, 315.879 150.750 L 314.923 147 295.616 147 C 278.183 147, 276.149 147.177, 274.655 148.829 M 329.655 148.829 C 328.190 150.448, 328 154.213, 328 181.629 C 328 204.384, 328.318 212.918, 329.200 213.800 C 330.051 214.651, 336.034 215, 349.751 215 L 369.102 215 370.439 211.750 C 371.175 209.963, 372.091 206.588, 372.476 204.250 L 373.176 200 359.088 200 L 345 200 345 180.500 L 345 161 359.079 161 L 373.159 161 372.497 157.750 C 372.133 155.963, 371.405 152.813, 370.879 150.750 L 369.923 147 350.616 147 C 333.183 147, 331.149 147.177, 329.655 148.829 M 216.999 181.750 L 216.999 215.500 236.749 215.204 C 247.612 215.041, 256.964 214.755, 257.531 214.569 C 258.099 214.383, 259.175 211.816, 259.924 208.865 C 260.672 205.914, 261.494 202.938, 261.749 202.250 C 262.107 201.288, 259.074 201, 248.607 201 L 235 201 235 194.500 L 235 188 248.500 188 L 262 188 262 182 L 262 176 248.500 176 L 235 176 235 169 L 235 162 248.469 162 C 258.790 162, 261.844 161.708, 261.537 160.750 C 261.317 160.063, 260.419 156.912, 259.541 153.750 L 257.944 148 237.472 148 L 217 148 216.999 181.750 M 405.541 149.712 C 402.760 156.796, 382 214.139, 381.998 214.741 C 381.996 215.159, 385.538 215.355, 389.867 215.178 C 397.017 214.885, 397.858 214.633, 399.039 212.428 C 400.318 210.037, 400.548 210, 414.190 210 C 427.996 210, 428.047 210.008, 429.182 212.500 C 430.256 214.857, 430.769 215, 438.161 215 C 442.472 215, 445.992 214.662, 445.982 214.250 C 445.972 213.838, 440.632 198.875, 434.116 181 L 422.268 148.500 414.256 148.212 C 407.327 147.962, 406.149 148.165, 405.541 149.712 M 410.140 183.079 C 407.863 189.912, 406 195.727, 405.999 196.001 C 405.999 196.276, 409.823 196.500, 414.497 196.500 C 419.171 196.500, 422.990 196.275, 422.982 196 C 422.974 195.725, 421.013 189.910, 418.624 183.078 L 414.281 170.655 410.140 183.079 M 375.500 182.742 C 365.234 183.783, 365.970 192, 376.329 192 C 381.455 192, 385 189.561, 385 186.035 C 385 184.186, 382.109 181.799, 380.316 182.168 C 379.867 182.261, 377.700 182.519, 375.500 182.742 M 415.587 183 C 413.883 187.616, 412 193.337, 412 193.902 C 412 194.260, 413.800 194.381, 416 194.171 C 418.200 193.962, 420 193.482, 420 193.107 C 420 192.731, 419.132 189.965, 418.071 186.962 C 416.899 183.644, 415.924 182.089, 415.587 183 M 314.046 185.444 C 311.345 188.699, 315.815 192.614, 318.811 189.618 C 320.084 188.344, 320.215 187.563, 319.376 186.231 C 317.916 183.913, 315.601 183.571, 314.046 185.444" stroke="none" fill="#161107" fill-rule="evenodd"/><path d="M 14 135.326 L 14 215.651 16.314 217.826 C 19.180 220.517, 20.449 220.551, 23 218 C 24.964 216.036, 25 214.667, 25 141 L 25 66 42.250 66.069 L 59.500 66.139 97 112.573 C 117.625 138.112, 134.912 159.625, 135.417 160.379 C 136.087 161.383, 132.749 166.017, 122.997 177.626 C 115.661 186.357, 109.378 193.836, 109.034 194.246 C 108.690 194.656, 101.458 187.058, 92.964 177.361 C 84.469 167.665, 76.503 159.065, 75.260 158.251 C 73.247 156.932, 72.726 156.949, 70.500 158.408 C 65.364 161.773, 66.588 163.833, 87.967 187.812 C 98.908 200.084, 108.096 210.209, 108.384 210.312 C 108.673 210.415, 111.344 207.575, 114.320 204 C 117.296 200.425, 126.520 189.411, 134.817 179.525 C 147.696 164.180, 149.714 161.328, 148.609 160.025 C 147.897 159.186, 141.712 151.525, 134.863 143 C 128.015 134.475, 114.979 118.275, 105.894 107 C 96.808 95.725, 84.518 80.425, 78.581 73 C 72.644 65.575, 66.937 58.487, 65.900 57.250 C 64.036 55.027, 63.714 55, 39.007 55 L 14 55 14 135.326 M 142 68.161 C 136.225 75.353, 128.238 85.261, 124.250 90.179 C 119.189 96.420, 117 99.947, 117 101.860 C 117 105.297, 118.655 107, 121.996 107 C 124.171 107, 127.262 103.677, 141.046 86.518 L 157.500 66.036 175.500 66.018 L 193.500 65.999 193.182 140.279 L 192.865 214.558 195.005 217.279 C 197.577 220.549, 199.067 220.689, 201.595 217.896 C 203.426 215.873, 203.520 212.683, 204 136.146 C 204.330 83.624, 204.159 56.250, 203.500 55.765 C 202.950 55.361, 191.250 55.043, 177.500 55.057 L 152.500 55.084 142 68.161 M 42 146.917 C 42 214.667, 42.039 216.039, 44 218 C 46.477 220.477, 47.176 220.487, 50.139 218.089 L 52.500 216.178 53 161.473 L 53.500 106.768 79.515 137.134 C 107.423 169.709, 108.963 171.039, 112.508 165.627 C 114.971 161.869, 117.632 165.448, 77.479 118.500 C 71.364 111.350, 61.266 99.425, 55.038 92 C 48.811 84.575, 43.330 78.350, 42.858 78.167 C 42.386 77.983, 42 108.884, 42 146.917 M 155.750 99.674 C 143.962 114, 138 122.031, 138 123.584 C 138 126.034, 141.481 130, 143.631 130 C 144.320 130, 148.993 124.938, 154.014 118.750 C 159.036 112.563, 163.449 107.387, 163.822 107.250 C 164.195 107.112, 164.356 131.237, 164.179 160.861 L 163.858 214.723 166.271 217.529 C 168.970 220.667, 171.005 220.459, 173.381 216.804 C 174.666 214.827, 174.923 204.808, 175.189 146.250 C 175.394 101.186, 175.160 78.017, 174.500 78.051 C 173.950 78.079, 165.512 87.809, 155.750 99.674 M 273.073 147.635 C 271.076 150.173, 271 151.420, 271 181.468 L 271 212.667 274.667 216.333 L 278.333 220 297.641 220 L 316.949 220 318.392 217.209 C 319.186 215.674, 320.409 211.642, 321.109 208.249 C 322.275 202.606, 322.226 201.907, 320.537 200.041 C 318.868 198.196, 317.502 198, 306.345 198 L 294 198 294 182 L 294 166 308 166 C 321.727 166, 322 165.957, 322 163.816 C 322 159.508, 318.769 150.231, 316.367 147.640 L 313.919 145 294.532 145 L 275.145 145 273.073 147.635 M 328.073 147.635 C 326.076 150.173, 326 151.420, 326 181.468 L 326 212.667 329.667 216.333 L 333.333 220 352.641 220 L 371.949 220 373.392 217.209 C 374.186 215.674, 375.409 211.642, 376.109 208.249 C 377.275 202.606, 377.226 201.907, 375.537 200.041 C 373.868 198.196, 372.502 198, 361.345 198 L 349 198 349 182 L 349 166 363 166 C 376.727 166, 377 165.957, 377 163.816 C 377 159.508, 373.769 150.231, 371.367 147.640 L 368.919 145 349.532 145 L 330.145 145 328.073 147.635 M 404.541 146.250 C 404.323 146.938, 398.449 163.172, 391.488 182.328 C 376.682 223.065, 376.632 219.917, 392.089 219.968 C 401.362 219.999, 401.717 219.917, 402.818 217.500 C 403.940 215.038, 404.135 215, 415.729 215.017 C 426.953 215.034, 427.609 215.150, 429.855 217.517 C 432.037 219.818, 432.900 220, 441.605 220 C 446.772 220, 451 219.706, 451 219.346 C 451 217.529, 426.511 151.040, 424.814 148.250 L 422.837 145 413.887 145 C 407.605 145, 404.819 145.373, 404.541 146.250 M 218.250 146.723 L 215 147.127 215 181.908 C 215 214.334, 215.124 216.802, 216.829 218.345 C 218.408 219.775, 221.523 220, 239.706 220 C 255.340 220, 261.015 219.678, 261.766 218.750 C 262.322 218.063, 263.651 214.283, 264.719 210.352 C 266.525 203.708, 266.547 203.051, 265.029 201.038 C 263.491 199, 262.711 198.891, 251.776 199.186 L 240.156 199.500 239.779 196.250 L 239.402 193 252.701 193 L 266 193 266 184.655 C 266 173.107, 265.571 172.775, 251.178 173.186 L 240.156 173.500 239.782 170.276 L 239.408 167.052 253.094 166.776 L 266.779 166.500 264.533 158.717 C 263.298 154.437, 261.244 149.824, 259.969 148.467 C 257.659 146.008, 257.593 146.001, 239.576 146.160 C 229.634 146.248, 220.037 146.502, 218.250 146.723 M 274.655 148.829 C 273.190 150.448, 273 154.213, 273 181.629 C 273 204.384, 273.318 212.918, 274.200 213.800 C 275.051 214.651, 281.034 215, 294.751 215 L 314.102 215 315.439 211.750 C 316.175 209.963, 317.091 206.588, 317.476 204.250 L 318.176 200 304.088 200 L 290 200 290 180.500 L 290 161 304.079 161 L 318.159 161 317.497 157.750 C 317.133 155.963, 316.405 152.813, 315.879 150.750 L 314.923 147 295.616 147 C 278.183 147, 276.149 147.177, 274.655 148.829 M 329.655 148.829 C 328.190 150.448, 328 154.213, 328 181.629 C 328 204.384, 328.318 212.918, 329.200 213.800 C 330.051 214.651, 336.034 215, 349.751 215 L 369.102 215 370.439 211.750 C 371.175 209.963, 372.091 206.588, 372.476 204.250 L 373.176 200 359.088 200 L 345 200 345 180.500 L 345 161 359.079 161 L 373.159 161 372.497 157.750 C 372.133 155.963, 371.405 152.813, 370.879 150.750 L 369.923 147 350.616 147 C 333.183 147, 331.149 147.177, 329.655 148.829 M 216.999 181.750 L 216.999 215.500 236.749 215.204 C 247.612 215.041, 256.964 214.755, 257.531 214.569 C 258.099 214.383, 259.175 211.816, 259.924 208.865 C 260.672 205.914, 261.494 202.938, 261.749 202.250 C 262.107 201.288, 259.074 201, 248.607 201 L 235 201 235 194.500 L 235 188 248.500 188 L 262 188 262 182 L 262 176 248.500 176 L 235 176 235 169 L 235 162 248.469 162 C 258.790 162, 261.844 161.708, 261.537 160.750 C 261.317 160.063, 260.419 156.912, 259.541 153.750 L 257.944 148 237.472 148 L 217 148 216.999 181.750 M 405.541 149.712 C 402.760 156.796, 382 214.139, 381.998 214.741 C 381.996 215.159, 385.538 215.355, 389.867 215.178 C 397.017 214.885, 397.858 214.633, 399.039 212.428 C 400.318 210.037, 400.548 210, 414.190 210 C 427.996 210, 428.047 210.008, 429.182 212.500 C 430.256 214.857, 430.769 215, 438.161 215 C 442.472 215, 445.992 214.662, 445.982 214.250 C 445.972 213.838, 440.632 198.875, 434.116 181 L 422.268 148.500 414.256 148.212 C 407.327 147.962, 406.149 148.165, 405.541 149.712 M 410.140 183.079 C 407.863 189.912, 406 195.727, 405.999 196.001 C 405.999 196.276, 409.823 196.500, 414.497 196.500 C 419.171 196.500, 422.990 196.275, 422.982 196 C 422.974 195.725, 421.013 189.910, 418.624 183.078 L 414.281 170.655 410.140 183.079 M 415.587 183 C 413.883 187.616, 412 193.337, 412 193.902 C 412 194.260, 413.800 194.381, 416 194.171 C 418.200 193.962, 420 193.482, 420 193.107 C 420 192.731, 419.132 189.965, 418.071 186.962 C 416.899 183.644, 415.924 182.089, 415.587 183" stroke="none" fill="#ceb167" fill-rule="evenodd"/></svg>