<svg xmlns="http://www.w3.org/2000/svg" width="976" height="486" viewBox="0 0 976 486" version="1.1"><path d="M 166.825 29.750 C 190.654 29.899, 229.354 29.899, 252.825 29.750 C 276.296 29.600, 256.800 29.478, 209.500 29.478 C 162.200 29.478, 142.996 29.600, 166.825 29.750 M 88.500 34 C 86.850 34.420, 86.175 34.830, 87 34.912 C 88.333 35.044, 88.333 35.155, 87 35.906 C 85.485 36.759, 76.138 38.488, 74.750 38.171 C 74.338 38.077, 74 38.444, 74 38.986 C 74 39.528, 71.188 41.388, 67.750 43.120 C 59.008 47.524, 46.300 60.091, 42.064 68.521 C 40.274 72.085, 38.441 75.227, 37.991 75.505 C 37.542 75.783, 36.877 77.921, 36.514 80.255 C 35.572 86.313, 34.969 88.099, 34.056 87.534 C 33.615 87.262, 32.978 88.718, 32.639 90.770 C 31.549 97.362, 31.901 353, 33 353 C 33.550 353, 34 352.460, 34 351.800 C 34 351.045, 34.347 350.952, 34.937 351.550 C 35.452 352.073, 36.015 354.525, 36.187 357 C 36.430 360.492, 36.863 361.441, 38.122 361.236 C 39.228 361.055, 39.942 361.960, 40.365 364.077 C 40.742 365.962, 41.740 367.381, 42.901 367.684 C 43.954 367.960, 45.040 369.043, 45.314 370.092 C 45.588 371.142, 46.530 372, 47.406 372 C 48.283 372, 49 372.461, 49 373.025 C 49 373.588, 50.125 374.477, 51.500 375 C 52.875 375.523, 54 376.412, 54 376.975 C 54 377.539, 54.569 378, 55.265 378 C 55.961 378, 59.223 379.303, 62.515 380.895 C 69.578 384.312, 163.345 419.531, 180 425.022 C 200.693 431.845, 217.040 432.062, 236.921 425.775 C 250.835 421.375, 349.338 384.372, 357 380.667 C 360.575 378.938, 363.837 377.631, 364.250 377.762 C 364.663 377.893, 365 377.539, 365 376.975 C 365 376.412, 366.125 375.523, 367.500 375 C 368.875 374.477, 370 373.641, 370 373.141 C 370 372.642, 370.900 371.998, 372 371.710 C 373.152 371.409, 374 370.346, 374 369.205 C 374 367.967, 374.625 367.274, 375.663 367.361 C 376.751 367.452, 377.627 366.365, 378.200 364.215 C 378.812 361.918, 379.590 361.015, 380.788 361.215 C 382.157 361.443, 382.563 360.598, 382.813 357 C 382.985 354.525, 383.548 352.072, 384.063 351.550 C 384.653 350.952, 385 351.045, 385 351.800 C 385 352.460, 385.450 353, 386 353 C 386.641 353, 387.013 343.226, 387.035 325.750 C 387.067 301.618, 387.234 298.786, 388.500 301 C 389.486 302.725, 390.003 307.376, 390.167 316 L 390.405 328.500 390.953 316 C 391.447 304.714, 391.633 303.743, 392.867 306 C 395.006 309.914, 412.367 326.496, 419.144 331.098 C 433.723 340.998, 449.231 346.176, 470.077 348.102 C 499.123 350.787, 528.039 346.544, 547.917 336.680 C 552.547 334.383, 556.486 332.953, 556.671 333.502 C 556.856 334.051, 557.885 335.938, 558.956 337.696 C 562.915 344.189, 562.340 344.097, 599.655 344.190 C 652.676 344.322, 649.331 344.526, 653.453 340.907 L 656.977 337.813 661.102 341.081 L 665.228 344.349 763.864 344.236 C 818.114 344.174, 863.523 344.096, 864.772 344.062 C 866.022 344.028, 868.955 342.239, 871.289 340.088 L 875.534 336.175 879.728 340.088 C 882.396 342.576, 884.937 344.035, 886.711 344.096 C 902.987 344.655, 958.534 344.547, 961.976 343.950 C 965.260 343.380, 967.325 342.222, 969.726 339.601 L 973 336.029 972.996 316.765 C 972.992 294.314, 972.514 292.784, 964.348 289.066 C 961.681 287.852, 958.825 286.509, 958 286.082 C 956.190 285.145, 941 261.163, 941 259.242 C 941 258.497, 943.274 255.101, 946.052 251.694 C 952.258 244.087, 957.493 233.459, 958.924 225.566 C 961.763 209.908, 959.014 182.803, 953.665 173.705 C 952.305 171.392, 947.809 166.225, 943.673 162.221 C 934.887 153.716, 924.429 148.252, 910.695 144.990 C 902.578 143.062, 898.895 142.955, 839.318 142.904 C 804.768 142.875, 773.928 142.884, 770.783 142.925 C 765.619 142.993, 764.725 143.342, 761.533 146.533 L 758 150.067 758 170.569 C 758 193.785, 758.121 194.229, 765.653 198.642 L 770.022 201.203 769.761 243.351 C 769.504 284.873, 769.470 285.495, 767.500 285.166 C 766.400 284.983, 765.173 284.521, 764.774 284.141 C 764.375 283.760, 753.911 253.760, 741.520 217.474 C 729.129 181.188, 718.177 150.403, 717.184 149.062 C 712.535 142.790, 713.792 142.975, 675.492 142.924 C 619.532 142.848, 625.617 142.448, 621.136 146.496 C 617.499 149.782, 616.642 151.826, 606.887 180.497 C 601.178 197.275, 596.131 210.877, 595.672 210.724 C 595.213 210.571, 593.379 206.569, 591.597 201.831 C 586.883 189.299, 580.800 179.762, 571.080 169.665 C 551.439 149.263, 529.997 140.232, 496.955 138.446 C 454.750 136.166, 424.254 147.171, 398.719 173.898 L 391 181.978 390.777 150.239 L 390.554 118.500 390.027 151 C 389.718 170.058, 389.086 184.120, 388.500 185 C 387.823 186.015, 387.338 170.802, 387 137.928 C 386.558 95.012, 386.312 89.168, 384.888 87.744 C 384.001 86.858, 382.975 83.871, 382.609 81.107 C 382.242 78.343, 381.548 75.839, 381.067 75.541 C 380.585 75.244, 378.694 72.021, 376.864 68.379 C 370.261 55.239, 350.115 39.407, 337.254 37.251 C 334.639 36.812, 332.699 36.014, 332.943 35.477 C 333.187 34.940, 332.062 34.216, 330.443 33.868 C 326.207 32.959, 92.089 33.087, 88.500 34 M 87.645 47.574 C 73.168 51.103, 58.698 62.434, 51.728 75.698 C 44.584 89.294, 45 79.991, 45 226.036 L 45 357.651 47.250 359.663 C 49.470 361.647, 206.538 421, 209.569 421 C 212.637 421, 371.524 360.898, 372.750 359.274 C 373.735 357.968, 373.997 329.671, 373.988 225.559 C 373.975 81.091, 374.292 89.058, 368.064 76.545 C 362.198 64.759, 350.810 54.631, 337.377 49.253 L 330.500 46.500 212 46.323 C 112.305 46.174, 92.571 46.373, 87.645 47.574 M 93 61.705 C 91.625 61.954, 87.321 63.674, 83.435 65.528 C 74.724 69.682, 68.084 76.490, 63.685 85.777 L 60.500 92.500 60.500 220.970 L 60.500 349.441 134.500 377.171 C 175.200 392.422, 208.950 404.916, 209.500 404.935 C 210.050 404.954, 243.800 392.479, 284.500 377.213 L 358.500 349.456 358.500 220.978 L 358.500 92.500 356.165 86.715 C 352.740 78.229, 344.606 69.903, 335.197 65.253 L 327.605 61.500 211.552 61.376 C 147.724 61.308, 94.375 61.456, 93 61.705 M 93.365 74.081 C 84.897 76.557, 75.420 86.226, 73.033 94.823 C 72.363 97.232, 72.009 140.140, 72.006 219.215 C 72 335.095, 72.073 339.969, 73.827 340.907 C 75.353 341.724, 105.871 353.785, 171.877 379.657 C 178.134 382.110, 183.872 383.879, 184.627 383.590 C 185.770 383.151, 186 373.080, 186 323.531 L 186 264 208.500 264 L 231 264 231 322.929 C 231 388.657, 230.762 386.369, 237.310 383.654 C 239.064 382.926, 264.462 372.937, 293.750 361.457 L 347 340.583 347 303.880 C 347 275.468, 346.662 265.412, 345.506 259.366 C 343.930 251.130, 338.884 239.337, 334.447 233.520 L 331.801 230.050 335.834 224.011 C 338.052 220.689, 340.838 215.390, 342.025 212.236 C 346.749 199.680, 347.092 194.636, 346.786 142.395 C 346.523 97.456, 346.354 93.232, 344.693 90.190 C 341.719 84.742, 335.944 79.012, 330.563 76.172 L 325.500 73.500 211 73.332 C 143.957 73.233, 95.201 73.544, 93.365 74.081 M 93.882 77.381 C 88.317 79.369, 83.479 82.683, 80.568 86.500 C 74.726 94.159, 75 87.662, 75 218.426 L 75 338.601 80.750 340.729 C 83.912 341.899, 107.837 351.213, 133.915 361.428 C 159.993 371.643, 181.705 380, 182.165 380 C 182.624 380, 183 353.225, 183 320.500 L 183 261 207.378 261 C 228.352 261, 231.938 261.220, 233.063 262.576 C 234.097 263.822, 234.462 276.375, 234.802 322.326 C 235.039 354.322, 235.321 380.604, 235.430 380.730 C 235.539 380.857, 260.037 371.407, 289.871 359.730 L 344.115 338.500 343.802 299.500 L 343.489 260.500 340.669 252.500 C 337.700 244.075, 335.479 239.875, 330.785 233.811 L 327.929 230.123 332.358 223.653 C 334.794 220.095, 337.777 214.555, 338.986 211.342 C 343.711 198.788, 343.964 195.404, 343.983 144.446 L 344 96.393 341.412 91.199 C 339.988 88.342, 337.011 84.453, 334.795 82.557 C 326.699 75.627, 333.780 75.995, 209.572 76.044 C 120.557 76.079, 96.756 76.354, 93.882 77.381 M 97.922 93.274 C 96.066 94.524, 93.524 97.066, 92.274 98.922 L 90 102.296 90 178.631 L 90 254.966 94.750 257.369 C 97.362 258.691, 102.650 260.753, 106.500 261.951 C 112.997 263.973, 114.792 264.084, 131.500 263.493 C 149.957 262.839, 151.926 263.076, 166.250 267.672 C 167.845 268.184, 168 267.251, 168 257.117 L 168 246 201.684 246 C 233.839 246, 235.565 246.095, 239.698 248.096 C 242.585 249.494, 244.857 251.606, 246.514 254.434 C 248.921 258.541, 249 259.268, 249 277.279 C 249 287.511, 249.374 296.113, 249.831 296.396 C 250.288 296.678, 259.515 293.095, 270.335 288.433 C 281.156 283.771, 292.819 279.236, 296.254 278.355 C 305.959 275.867, 314.076 276.947, 327.250 282.479 C 328.831 283.143, 328.999 282.456, 328.985 275.357 C 328.958 260.961, 324.628 248.628, 316.880 240.880 C 312.891 236.891, 304.095 232.029, 300.832 232.010 C 295.843 231.981, 296.067 230.599, 301.326 228.972 C 317.085 224.096, 326.458 210.271, 328.991 188.164 C 330.322 176.543, 330.294 108.600, 328.956 103.781 C 328.388 101.736, 326.762 98.682, 325.342 96.995 C 319.970 90.611, 327.514 91, 209.198 91 L 101.296 91 97.922 93.274 M 28.482 223.500 C 28.482 281.250, 28.602 304.728, 28.750 275.673 C 28.897 246.619, 28.897 199.369, 28.750 170.673 C 28.602 141.978, 28.482 165.750, 28.482 223.500 M 168.659 155.161 C 168.297 166.800, 168 185.041, 168 195.698 L 168 215.073 203.409 214.786 L 238.817 214.500 242.594 211.442 C 250.860 204.749, 250.500 206.501, 250.500 172.999 C 250.500 130.882, 254.190 134.004, 204.409 134.002 L 169.318 134 168.659 155.161 M 461.655 145.543 C 447.341 148.227, 432.305 154.281, 421.080 161.881 C 414.796 166.135, 401.541 179.478, 397.398 185.720 C 392.764 192.701, 389.498 200.234, 386.749 210.281 C 384.690 217.804, 384.506 220.574, 384.569 243 C 384.650 271.716, 385.566 276.588, 394.150 293.999 C 398.790 303.410, 400.424 305.598, 409.913 315.105 C 421.051 326.264, 428.102 331.081, 440.471 335.981 C 454.731 341.631, 461.160 342.505, 488 342.446 C 512.192 342.392, 512.648 342.352, 524.255 339.263 C 537.837 335.649, 548.389 330.871, 555.771 324.993 C 558.627 322.720, 561.422 321.143, 561.983 321.490 C 562.599 321.870, 562.760 324.194, 562.389 327.349 C 561.837 332.042, 562.051 332.907, 564.476 335.789 L 567.178 339 607.443 339 L 647.708 339 650.429 336.478 L 653.150 333.957 652.825 313.977 L 652.500 293.998 658.250 293.999 C 663.558 294, 665.441 294.991, 663 296.500 C 662.392 296.876, 662 304.359, 662 315.604 C 662 333.899, 662.026 334.116, 664.455 336.545 L 666.909 339 765.767 339 L 864.626 339 867.266 336.244 C 869.600 333.808, 869.942 332.557, 870.204 325.494 L 870.500 317.500 875.391 325 C 878.081 329.125, 881.657 333.962, 883.337 335.750 L 886.392 339 924.456 339 L 962.520 339 965.260 336.460 L 968 333.919 968 316.383 L 968 298.846 965.077 295.923 C 963.469 294.315, 961.107 292.984, 959.827 292.965 C 955.277 292.895, 952.788 290.191, 942.954 274.626 C 937.479 265.961, 933 258.634, 933 258.343 C 933 258.052, 935.521 255.044, 938.601 251.657 C 945.567 244, 949.388 237.521, 952.261 228.500 C 956.454 215.328, 954.667 188.109, 948.863 176.731 C 945.173 169.498, 936.060 161.555, 925.745 156.582 C 908.365 148.202, 913.065 148.638, 836.106 148.259 L 767.713 147.921 765.356 150.135 C 763.045 152.307, 763 152.701, 763 171 C 763 189.299, 763.044 189.693, 765.357 191.865 C 766.653 193.083, 769.353 194.345, 771.357 194.670 C 773.360 194.996, 775.011 195.765, 775.024 196.381 C 775.523 219.562, 774.794 291.606, 774.052 292.348 C 773.027 293.373, 766.849 291.989, 762.103 289.671 C 759.607 288.451, 757.532 282.691, 724.048 184 C 716.756 162.509, 712.950 152.688, 711.163 150.750 L 708.626 148 668 148 L 627.374 148 624.677 150.816 C 622.581 153.003, 618.762 163.220, 607.577 196.566 C 599.655 220.180, 592.798 239.500, 592.337 239.500 C 591.877 239.500, 591.217 234.100, 590.872 227.500 C 589.668 204.513, 581.307 187.084, 563.233 169.884 C 551.298 158.526, 539.105 152.021, 520 146.818 C 509.910 144.070, 473.727 143.280, 461.655 145.543 M 474.097 149.079 C 432.826 152.881, 400.744 177.365, 391.920 211.797 C 387.582 228.722, 387.599 256.273, 391.956 273.500 C 398.948 301.139, 420.143 323.616, 448.094 333.032 C 464.859 338.679, 494.233 340.108, 513.539 336.215 C 525.969 333.709, 537.926 329.757, 544.500 325.982 C 550.087 322.774, 560.378 314.334, 562.639 311.105 C 563.450 309.947, 564.763 309, 565.557 309 C 566.723 309, 567 311.025, 567 319.566 C 567 325.377, 567.466 331.002, 568.035 332.066 C 569.031 333.926, 570.527 334, 607.335 334 C 635.763 334, 645.908 333.692, 646.800 332.800 C 647.634 331.966, 648 326.679, 648 315.455 C 648 301.084, 647.799 299.128, 646.171 297.655 C 645.165 296.745, 643.576 296, 642.640 296 C 640.380 296, 639.579 293.655, 640.958 291.078 C 642.011 289.112, 642.900 289, 657.500 289 C 671.731 289, 673.010 289.150, 673.965 290.934 C 675.580 293.952, 675.239 294.826, 671.750 296.614 C 669.962 297.530, 668.169 298.779, 667.765 299.390 C 667.361 300, 667.024 307.532, 667.015 316.128 C 667.004 327.990, 667.323 332.023, 668.341 332.868 C 669.305 333.668, 696.826 333.980, 766.312 333.980 C 860.635 333.978, 862.966 333.932, 863.971 332.055 C 864.537 330.997, 865 324.049, 865 316.616 L 865 303.100 860.500 299.338 C 856.621 296.095, 856 295.054, 856 291.788 C 856 289.705, 856.387 288, 856.860 288 C 857.332 288, 863.702 297.113, 871.014 308.250 C 878.326 319.387, 885.449 329.738, 886.842 331.250 L 889.374 334 924.987 334 C 951.353 334, 960.912 333.688, 961.800 332.800 C 962.628 331.972, 963 326.901, 963 316.455 C 963 299.465, 962.946 299.325, 955.481 297.202 C 953.270 296.573, 950.749 295.482, 949.877 294.779 C 948.259 293.473, 926 258.676, 926 257.453 C 926 257.082, 929.377 253.189, 933.505 248.802 C 948.591 232.765, 952.937 215.861, 948.056 192.205 C 947.001 187.093, 944.993 180.958, 943.595 178.571 C 939.861 172.200, 931.764 165.426, 922.585 160.993 C 906.546 153.248, 910.252 153.582, 836.644 153.239 C 787.863 153.011, 770.426 153.231, 769.394 154.088 C 768.310 154.988, 768 158.758, 768 171.066 C 768 186.281, 768.085 186.946, 770.223 188.443 C 771.445 189.299, 773.582 190.007, 774.973 190.015 C 780.229 190.047, 780.037 187.869, 779.759 244.065 L 779.500 296.500 774.144 297.809 C 769.641 298.910, 768.526 298.897, 767.144 297.732 C 766.240 296.969, 763.641 295.815, 761.369 295.168 C 759.096 294.521, 756.726 293.375, 756.102 292.623 C 755.477 291.870, 744.631 260.978, 731.998 223.972 C 719.365 186.967, 708.278 155.860, 707.360 154.845 C 705.792 153.113, 703.350 153, 667.467 153 C 636.333 153, 629.034 153.254, 628.108 154.369 C 627.483 155.122, 617.049 185.151, 604.921 221.100 C 583.587 284.334, 580.205 293.323, 577.342 294.422 C 575.344 295.189, 575.701 292.922, 578.610 286.374 C 585.436 271.013, 588.363 247.695, 586.090 226.799 C 581.801 187.366, 553.011 157.914, 511.571 150.566 C 500.665 148.633, 485.487 148.030, 474.097 149.079 M 183 174.500 L 183 200 207.943 200 C 232.585 200, 232.905 199.973, 234.443 197.777 C 235.734 195.935, 236 191.917, 236 174.277 C 236 154.333, 235.875 152.875, 234 151 C 232.109 149.109, 230.667 149, 207.500 149 L 183 149 183 174.500 M 186 174.518 L 186 197.037 209.250 196.768 L 232.500 196.500 232.771 175.627 C 232.959 161.075, 232.695 154.338, 231.898 153.377 C 230.990 152.283, 226.163 152, 208.378 152 L 186 152 186 174.518 M 467.655 155.597 C 451.222 158.566, 432.815 166.650, 421.379 175.920 C 410.040 185.112, 401.295 199.220, 396.845 215.500 C 394.954 222.420, 394.658 226.065, 394.658 242.500 C 394.658 258.666, 394.968 262.619, 396.737 269 C 400.075 281.047, 402.796 287.433, 407.902 295.207 C 419.927 313.513, 437.380 325.053, 461.500 330.645 C 472.738 333.251, 501.091 333.273, 512.500 330.686 C 536.067 325.340, 549.646 318.023, 560.803 304.655 C 566.381 297.972, 575.437 279.685, 578.211 269.500 C 580.082 262.632, 580.397 258.811, 580.438 242.500 C 580.494 219.772, 579.776 216.037, 572.531 201.388 C 561.772 179.635, 547.793 167.846, 523 159.617 C 517.225 157.701, 508.980 155.653, 504.678 155.066 C 494.119 153.627, 477.217 153.869, 467.655 155.597 M 463 158.690 C 457.461 159.616, 444.063 164.475, 436.911 168.153 C 408.572 182.725, 394.853 209.198, 396.309 246.500 C 397.177 268.719, 402.518 285.348, 413.398 299.704 C 428.089 319.087, 455.933 331, 486.545 331 C 504.083 331, 526.359 326.031, 539.500 319.187 C 552.744 312.289, 565.395 296.977, 572.612 279.109 C 577.752 266.383, 578.486 261.690, 578.493 241.500 C 578.499 224.007, 578.309 221.945, 576.088 215.508 C 568.707 194.111, 559.762 182.122, 543.324 171.595 C 536.407 167.164, 522.584 160.955, 519.833 161.042 C 519.100 161.066, 520.975 162.120, 524 163.386 C 547.534 173.234, 558.935 183.366, 568.195 202.663 C 575.124 217.105, 576.285 223.628, 575.730 245 C 575.323 260.648, 574.983 263.400, 572.520 271 C 565.455 292.798, 553.040 309.148, 537.676 316.887 C 523.297 324.129, 499.793 328.663, 481.848 327.656 C 455.816 326.195, 436.517 318.592, 422.026 304.090 C 410.191 292.245, 403.406 277.918, 400.562 258.763 C 395.185 222.552, 405.613 192.434, 429.358 175.590 C 439.995 168.045, 455.096 161.437, 467.069 159.088 C 470.279 158.459, 470.673 158.226, 468.500 158.246 C 466.850 158.260, 464.375 158.460, 463 158.690 M 632.525 158.959 C 631.795 160.140, 623.707 183.788, 604.420 241.129 C 585.633 296.985, 585.455 297.378, 577.312 300.980 C 574.940 302.029, 572.972 303.250, 572.938 303.694 C 572.538 308.853, 572.637 327.412, 573.067 328.109 C 573.399 328.646, 587.933 328.917, 608.067 328.763 L 642.500 328.500 642.500 315.041 L 642.500 301.582 639.139 300.895 C 633.151 299.670, 632.479 298.162, 634.663 290.848 L 636.558 284.500 657.321 284.230 L 678.085 283.959 679.650 287.704 C 680.511 289.764, 681.279 293.469, 681.357 295.937 C 681.499 300.387, 681.469 300.429, 677.699 301.063 C 675.609 301.414, 673.457 302.143, 672.917 302.683 C 672.349 303.251, 672.054 308.890, 672.218 316.082 L 672.500 328.500 718 328.500 L 763.500 328.500 763.778 315.329 L 764.057 302.158 758.704 300.602 C 755.761 299.747, 752.585 298.199, 751.647 297.162 C 750.709 296.126, 746.401 284.753, 742.074 271.889 C 734.956 250.728, 709.968 177.555, 705.232 164 L 703.310 158.500 668.222 158.237 C 645.975 158.071, 632.911 158.335, 632.525 158.959 M 773 170.893 C 773 184.889, 773.046 185, 778.891 185 C 780.391 185, 782.491 185.639, 783.559 186.419 C 785.437 187.793, 785.503 189.592, 785.582 242.169 C 785.627 272.051, 785.372 297.617, 785.015 298.982 C 784.380 301.410, 783.396 301.886, 775.750 303.469 L 773 304.038 773 316.530 L 773 329.021 816.250 328.761 L 859.500 328.500 859.784 317.705 C 860.096 305.886, 860.515 306.911, 853 301.111 C 850.585 299.247, 850.489 298.723, 850.173 285.639 C 849.993 278.176, 850.277 271.327, 850.805 270.383 C 851.584 268.992, 855.543 274.335, 871.899 298.849 L 892.035 329.027 924.767 328.764 L 957.500 328.500 957.780 316.898 C 958.091 304.056, 958.107 304.094, 951.440 302.192 C 949.207 301.555, 946.440 300.014, 945.290 298.767 C 942.686 295.942, 918.843 258.101, 918.254 255.859 C 917.970 254.776, 919.353 253.165, 922.323 251.122 C 931.969 244.485, 940.624 231.516, 943.095 219.994 C 944.531 213.297, 943.746 197.566, 941.581 189.667 C 938.376 177.973, 929.796 169.774, 914.617 163.903 C 900.085 158.282, 897.150 158.073, 832.250 158.035 L 773 158 773 170.893 M 634.050 161.440 C 633.393 162.232, 623.015 192.445, 610.988 228.581 C 587.936 297.844, 586.951 300.222, 580.441 302.320 C 575.078 304.049, 574.914 304.478, 575.218 315.899 L 575.500 326.500 606.880 326.764 C 629.631 326.956, 638.646 326.709, 639.663 325.864 C 640.735 324.975, 641 322.318, 640.783 314.612 L 640.500 304.525 635.833 302.312 C 633.266 301.094, 630.892 299.234, 630.556 298.178 C 630.221 297.122, 631.136 293.050, 632.589 289.129 L 635.232 282 657.375 282 L 679.519 282 681.760 288.903 C 685.137 299.309, 684.511 303, 679.371 303 C 675.042 303, 673.999 305.399, 674.015 315.321 C 674.024 320.370, 674.391 325.067, 674.831 325.761 C 675.459 326.750, 684.882 326.966, 718.566 326.761 L 761.500 326.500 761.782 315.899 C 762.098 304.062, 762.245 304.359, 754.691 301.567 C 748.197 299.167, 749.913 303.254, 726.959 235.500 C 705.813 173.078, 701.718 161.444, 700.653 160.765 C 700.019 160.361, 685.043 160.024, 667.372 160.015 C 640.617 160.003, 635.045 160.241, 634.050 161.440 M 775.483 162.213 C 775.168 163.471, 775.043 168.279, 775.205 172.898 L 775.500 181.296 780.205 182.665 C 788.469 185.070, 788 181.362, 788 244.232 C 788 307.320, 788.766 301.659, 779.778 304.974 L 775.500 306.552 775.215 316.156 C 774.970 324.439, 775.164 325.849, 776.632 326.412 C 778.621 327.176, 780.737 325.574, 779.087 324.554 C 778.462 324.167, 778 320.717, 778 316.428 L 778 308.975 783.362 306.604 C 787.581 304.738, 788.966 303.537, 789.862 300.967 C 790.659 298.681, 791 281.476, 790.998 243.601 C 790.997 182.242, 791.197 183.911, 783.500 181.076 C 781.300 180.266, 779.169 179.130, 778.765 178.552 C 777.393 176.588, 777.905 165.323, 779.424 164.063 C 780.494 163.175, 795.217 162.970, 838.674 163.236 C 894.842 163.580, 896.729 163.654, 904.500 165.818 C 920.052 170.149, 930.241 176.170, 935.178 183.946 C 936.730 186.391, 938 187.696, 938 186.846 C 938 184.747, 933.054 178.068, 928.899 174.555 C 924.274 170.646, 913.166 165.500, 903.500 162.786 C 895.681 160.592, 894.152 160.534, 835.778 160.233 L 776.057 159.926 775.483 162.213 M 635.170 164.750 C 634.675 165.713, 624.969 194.445, 613.602 228.600 C 600.263 268.677, 591.793 292.608, 589.717 296.081 C 587.542 299.719, 585.111 302.228, 582.212 303.827 L 577.925 306.191 578.212 314.846 L 578.500 323.500 608 323.500 L 637.500 323.500 637.790 315.291 L 638.080 307.081 634 305 C 627.963 301.920, 627.389 299.814, 630.018 290.397 C 633.558 277.719, 630.561 278.924, 657.795 279.232 L 681.500 279.500 683.781 286.500 C 685.304 291.172, 685.969 295.329, 685.781 299 C 685.519 304.122, 685.294 304.569, 682.500 305.500 C 680.850 306.050, 678.938 306.864, 678.250 307.309 C 676.467 308.463, 676.564 321.393, 678.367 322.889 C 679.347 323.703, 690.877 323.949, 719.117 323.762 L 758.500 323.500 758.791 315.241 C 759.081 306.997, 759.076 306.979, 756.291 306.007 C 751.052 304.177, 748.601 302.481, 746.843 299.470 C 745.876 297.815, 735.211 267.220, 723.143 231.480 C 711.074 195.741, 700.882 165.713, 700.493 164.750 C 699.840 163.135, 697.333 163, 667.928 163 C 638.597 163, 635.999 163.139, 635.170 164.750 M 476.882 189.321 C 467.675 192.762, 462.655 198.186, 460.060 207.500 C 455.394 224.244, 453.585 252.795, 456.363 265.828 C 459.412 280.133, 466.198 290.958, 474.740 295.145 C 478.583 297.028, 481.138 297.480, 488 297.489 C 495.678 297.499, 497.032 297.199, 502 294.388 C 514.975 287.047, 520.259 272.084, 520.200 242.859 C 520.149 217.816, 517.377 206.704, 508.882 197.488 C 502.711 190.793, 498.115 188.724, 488.500 188.312 C 483.420 188.095, 479.180 188.463, 476.882 189.321 M 847.667 190.667 C 847.300 191.033, 847 192.174, 847 193.202 C 847 194.802, 847.308 194.905, 849.141 193.925 C 850.496 193.199, 854.891 192.924, 861.114 193.174 C 871.925 193.608, 873.800 194.436, 879.271 201.197 C 883.497 206.418, 883.846 211.364, 880.513 218.791 C 877.025 226.565, 874.727 228.632, 866.896 231.047 L 860.500 233.018 866.430 232.479 C 869.856 232.168, 873.780 231.063, 875.721 229.863 C 880.360 226.996, 884.681 219.054, 885.516 211.859 C 886.119 206.663, 885.902 205.509, 883.575 201.538 C 880.274 195.906, 875.722 192.404, 869.980 191.081 C 864.986 189.930, 848.705 189.628, 847.667 190.667 M 477.648 192.027 C 473.362 193.312, 468.665 196.856, 466.136 200.714 C 461.578 207.666, 457.978 227.272, 458.035 244.822 C 458.141 277.429, 468.883 295, 488.710 295 C 503.576 295, 512.488 284.952, 516.097 264.119 C 518.290 251.461, 518.462 237.982, 516.595 225 C 514.077 207.496, 507.700 196.714, 497.282 192.348 C 493.749 190.868, 482.149 190.678, 477.648 192.027 M 477.500 194.222 C 467.981 197.597, 464.607 204.011, 461.496 224.653 C 458.545 244.229, 460.284 266.382, 465.663 277.753 C 468.951 284.704, 474.740 290.556, 479.685 291.929 C 490.533 294.942, 501.514 291.474, 507.172 283.250 C 513.070 274.678, 514.278 268.790, 514.767 246.250 C 515.383 217.802, 513.815 210.346, 505.207 200.799 C 500.153 195.194, 495.036 193.030, 487 193.101 C 483.425 193.132, 479.150 193.637, 477.500 194.222 M 851.571 196.571 C 850.285 197.858, 850 200.815, 850 212.871 C 850 222.994, 850.375 227.975, 851.200 228.800 C 853.779 231.379, 869.675 229.506, 873.343 226.192 C 875.969 223.820, 879.599 216.231, 880.315 211.620 C 881.370 204.817, 875.466 197.400, 867.818 195.922 C 860.622 194.531, 853.320 194.823, 851.571 196.571 M 482.123 198.959 C 477.473 200.116, 473.816 202.989, 471.805 207.065 C 466.520 217.775, 464.067 249.853, 467.426 264.335 C 470.985 279.683, 477.460 287, 487.482 287 C 499.048 287, 505.223 279.791, 508.549 262.407 C 510.212 253.715, 510.423 234.771, 508.971 224.500 C 506.406 206.356, 495.208 195.703, 482.123 198.959 M 856.750 201.571 C 856.337 201.990, 856 207.208, 856 213.167 L 856 224 859.250 223.994 C 861.038 223.991, 864.222 223.511, 866.328 222.926 C 869.587 222.021, 870.514 221.093, 872.568 216.682 C 875.659 210.043, 875.612 208.716, 872.149 204.840 C 869.680 202.078, 868.505 201.593, 863.399 201.229 C 860.154 200.998, 857.163 201.151, 856.750 201.571 M 482.500 204.529 C 480.300 205.321, 478.439 205.977, 478.364 205.985 C 478.289 205.993, 477.456 207.627, 476.512 209.615 C 474.285 214.308, 471.381 228.580, 470.501 239.154 C 469.131 255.608, 475.064 276.913, 482.017 280.509 C 488.758 283.995, 495.760 281.235, 499.483 273.623 C 503.860 264.677, 505.251 255.358, 504.724 238.500 C 504.081 217.921, 500.884 209.532, 491.945 204.972 C 487.419 202.663, 487.650 202.674, 482.500 204.529 M 656.543 207.083 C 651.986 219.450, 643.132 247.405, 643.556 248.090 C 643.865 248.591, 650.166 249, 657.559 249 C 669.699 249, 670.999 248.831, 670.985 247.250 C 670.963 244.735, 659.172 207.772, 658.025 206.625 C 657.412 206.012, 656.877 206.178, 656.543 207.083 M 860.409 207.377 C 860.118 208.134, 860.020 210.943, 860.190 213.618 C 860.547 219.212, 862.564 220.436, 865.913 217.087 C 869.236 213.764, 869.697 209.983, 867.040 207.831 C 864.364 205.664, 861.151 205.444, 860.409 207.377 M 482.609 211.534 C 480.726 213.417, 479.445 217.810, 477.370 229.500 C 473.665 250.374, 479.210 276, 487.432 276 C 493.263 276, 497.242 268.043, 499.212 252.444 C 501.320 235.753, 497.602 215.636, 491.636 211.458 C 488.926 209.560, 484.546 209.596, 482.609 211.534 M 651.120 228.712 C 648.285 236.845, 645.974 244.063, 645.983 244.750 C 645.996 245.673, 648.876 246, 657 246 C 665.254 246, 668 245.681, 668 244.724 C 668 242.166, 658.335 214.612, 657.319 214.273 C 656.744 214.081, 653.954 220.579, 651.120 228.712 M 653.005 231.484 C 651.249 236.755, 650.065 241.728, 650.375 242.534 C 650.789 243.613, 652.646 244, 657.410 244 C 660.969 244, 664.114 243.624, 664.398 243.165 C 665.168 241.919, 658.683 222.689, 657.349 222.265 C 656.668 222.049, 654.896 225.810, 653.005 231.484 M 935.512 229.734 C 931.749 236.921, 923.988 244.861, 916.712 248.968 C 913.570 250.740, 911 252.662, 911 253.239 C 911 254.372, 937.699 297.077, 941.154 301.469 C 942.310 302.939, 945.336 305.127, 947.878 306.332 L 952.500 308.522 952.796 315.854 C 952.969 320.139, 952.637 323.733, 951.997 324.503 C 950.475 326.337, 952.616 327.564, 954.544 325.964 C 955.603 325.085, 955.996 322.538, 955.985 316.628 C 955.976 312.157, 955.639 308.029, 955.235 307.453 C 954.831 306.877, 951.941 305.170, 948.814 303.661 C 943.847 301.263, 942.449 299.878, 937.756 292.708 C 926.531 275.560, 914 255.274, 914 254.253 C 914 253.668, 915.965 252.038, 918.367 250.631 C 924.277 247.167, 932.466 238.001, 936.124 230.754 C 937.778 227.478, 938.978 224.645, 938.791 224.458 C 938.605 224.271, 937.129 226.645, 935.512 229.734 M 847.667 261.667 C 847.300 262.033, 847.029 263.721, 847.063 265.417 C 847.123 268.330, 847.178 268.372, 848.057 266.180 C 850.188 260.866, 852.528 263.587, 872.823 294.989 C 886.231 315.734, 893.163 325.590, 894.514 325.829 C 896.335 326.151, 896.360 326.069, 894.818 324.840 C 893.893 324.103, 884.951 310.225, 874.946 294 C 864.941 277.775, 856.066 263.712, 855.223 262.750 C 853.719 261.033, 848.980 260.353, 847.667 261.667 M 207.818 282.514 C 207.643 283.916, 207.050 284.936, 206.500 284.781 C 205.950 284.626, 205.607 283.712, 205.738 282.750 C 205.872 281.766, 205.330 281, 204.500 281 C 203.688 281, 203.090 281.788, 203.170 282.750 C 203.493 286.607, 202.946 290, 202 290 C 201.450 290, 201 287.975, 201 285.500 C 201 283.025, 200.582 281, 200.071 281 C 199.518 281, 199.100 295.101, 199.039 315.794 C 198.983 334.931, 198.540 351.919, 198.054 353.544 C 197.496 355.414, 197.140 345.038, 197.086 325.309 C 197.032 305.688, 196.629 293.889, 196 293.500 C 195.339 293.091, 195.024 307.722, 195.070 336.691 C 195.111 362.074, 195.502 379.659, 196 378.500 C 196.473 377.400, 196.936 374.475, 197.029 372 C 197.172 368.213, 197.326 367.896, 198 370 C 198.440 371.375, 198.845 374.386, 198.900 376.691 C 199.006 381.133, 201 383.913, 201 379.618 C 201 375.591, 202.715 375.686, 203.522 379.759 L 204.263 383.500 205.441 380.726 C 206.677 377.818, 208 378.046, 208 381.167 C 208 382.175, 208.450 383, 209 383 C 209.550 383, 210 381.875, 210 380.500 C 210 379.125, 210.450 378, 211 378 C 211.550 378, 212 378.873, 212 379.941 C 212 383.436, 213.883 383.138, 214.559 379.537 C 215.304 375.568, 217 375.723, 217 379.759 C 217 385.239, 218.934 380.327, 219.175 374.236 C 219.466 366.866, 221 365.778, 221 372.941 C 221 375.659, 221.450 378.160, 222 378.500 C 222.661 378.908, 223 364.697, 223 336.618 C 223 309.363, 222.641 293.896, 222 293.500 C 221.343 293.094, 220.959 303.436, 220.882 323.691 C 220.816 340.636, 220.816 354.837, 220.882 355.250 C 220.947 355.663, 220.550 356, 220 356 C 219.355 356, 218.964 344.182, 218.899 322.750 C 218.843 304.462, 218.640 287.760, 218.448 285.633 C 218.041 281.130, 217.067 279.574, 216.852 283.083 C 216.771 284.413, 216.658 286.279, 216.602 287.231 C 216.546 288.182, 216.050 288.961, 215.500 288.961 C 214.950 288.961, 214.454 288.182, 214.398 287.231 C 214.342 286.279, 214.229 284.488, 214.148 283.250 C 213.965 280.468, 212 280.239, 212 283 C 212 284.100, 211.550 285, 211 285 C 210.450 285, 210 284.127, 210 283.059 C 210 280.083, 208.178 279.628, 207.818 282.514 M 847.068 299.290 C 847.030 300.274, 848.800 302.844, 851 305 C 854.867 308.791, 855 309.140, 855 315.526 C 855 319.159, 854.549 322.975, 853.997 324.005 C 852.841 326.165, 854.526 327.874, 856.181 326.219 C 857.443 324.957, 858.072 311.319, 856.998 308.494 C 856.559 307.339, 854.601 305.299, 852.647 303.960 C 850.693 302.621, 848.653 300.620, 848.115 299.513 C 847.248 297.732, 847.128 297.706, 847.068 299.290 M 90.222 314.147 L 90.500 328.464 129 343.605 L 167.500 358.746 167.770 337.693 C 167.919 326.115, 167.694 316.315, 167.270 315.918 C 166.847 315.520, 157.950 313.543, 147.500 311.525 C 137.050 309.507, 125.575 307.231, 122 306.467 C 113.484 304.648, 97.369 301.292, 93.222 300.475 L 89.944 299.829 90.222 314.147 M 250 345.481 C 250 352.916, 250.224 359, 250.498 359 C 251.908 359, 294.020 341.687, 293.609 341.276 C 293.344 341.011, 289.836 340.190, 285.813 339.453 C 278.959 338.196, 257.243 333.698, 252.250 332.501 C 250.001 331.962, 250 331.968, 250 345.481 M 191.395 362.500 C 191.396 370.200, 191.553 373.218, 191.743 369.206 C 191.934 365.195, 191.932 358.895, 191.741 355.206 C 191.549 351.518, 191.393 354.800, 191.395 362.500 M 226.385 364 C 226.385 370.875, 226.545 373.688, 226.740 370.250 C 226.936 366.813, 226.936 361.188, 226.740 357.750 C 226.545 354.313, 226.385 357.125, 226.385 364" stroke="none" fill="#b0c124" fill-rule="evenodd"/><path d="M 87.645 47.574 C 73.168 51.103, 58.698 62.434, 51.728 75.698 C 44.584 89.294, 45 79.991, 45 226.036 L 45 357.651 47.250 359.663 C 49.470 361.647, 206.538 421, 209.569 421 C 212.637 421, 371.524 360.898, 372.750 359.274 C 373.735 357.968, 373.997 329.671, 373.988 225.559 C 373.975 81.091, 374.292 89.058, 368.064 76.545 C 362.198 64.759, 350.810 54.631, 337.377 49.253 L 330.500 46.500 212 46.323 C 112.305 46.174, 92.571 46.373, 87.645 47.574 M 93 61.705 C 91.625 61.954, 87.321 63.674, 83.435 65.528 C 74.724 69.682, 68.084 76.490, 63.685 85.777 L 60.500 92.500 60.500 220.970 L 60.500 349.441 134.500 377.171 C 175.200 392.422, 208.950 404.916, 209.500 404.935 C 210.050 404.954, 243.800 392.479, 284.500 377.213 L 358.500 349.456 358.500 220.978 L 358.500 92.500 356.165 86.715 C 352.740 78.229, 344.606 69.903, 335.197 65.253 L 327.605 61.500 211.552 61.376 C 147.724 61.308, 94.375 61.456, 93 61.705 M 93.365 74.081 C 84.897 76.557, 75.420 86.226, 73.033 94.823 C 72.363 97.232, 72.009 140.140, 72.006 219.215 C 72 335.095, 72.073 339.969, 73.827 340.907 C 75.353 341.724, 105.871 353.785, 171.877 379.657 C 178.134 382.110, 183.872 383.879, 184.627 383.590 C 185.770 383.151, 186 373.080, 186 323.531 L 186 264 208.500 264 L 231 264 231 322.929 C 231 388.657, 230.762 386.369, 237.310 383.654 C 239.064 382.926, 264.462 372.937, 293.750 361.457 L 347 340.583 347 303.880 C 347 275.468, 346.662 265.412, 345.506 259.366 C 343.930 251.130, 338.884 239.337, 334.447 233.520 L 331.801 230.050 335.834 224.011 C 338.052 220.689, 340.838 215.390, 342.025 212.236 C 346.749 199.680, 347.092 194.636, 346.786 142.395 C 346.523 97.456, 346.354 93.232, 344.693 90.190 C 341.719 84.742, 335.944 79.012, 330.563 76.172 L 325.500 73.500 211 73.332 C 143.957 73.233, 95.201 73.544, 93.365 74.081 M 93.882 77.381 C 88.317 79.369, 83.479 82.683, 80.568 86.500 C 74.726 94.159, 75 87.662, 75 218.426 L 75 338.601 80.750 340.729 C 83.912 341.899, 107.837 351.213, 133.915 361.428 C 159.993 371.643, 181.705 380, 182.165 380 C 182.624 380, 183 353.225, 183 320.500 L 183 261 207.378 261 C 228.352 261, 231.938 261.220, 233.063 262.576 C 234.097 263.822, 234.462 276.375, 234.802 322.326 C 235.039 354.322, 235.321 380.604, 235.430 380.730 C 235.539 380.857, 260.037 371.407, 289.871 359.730 L 344.115 338.500 343.802 299.500 L 343.489 260.500 340.669 252.500 C 337.700 244.075, 335.479 239.875, 330.785 233.811 L 327.929 230.123 332.358 223.653 C 334.794 220.095, 337.777 214.555, 338.986 211.342 C 343.711 198.788, 343.964 195.404, 343.983 144.446 L 344 96.393 341.412 91.199 C 339.988 88.342, 337.011 84.453, 334.795 82.557 C 326.699 75.627, 333.780 75.995, 209.572 76.044 C 120.557 76.079, 96.756 76.354, 93.882 77.381 M 97.922 93.274 C 96.066 94.524, 93.524 97.066, 92.274 98.922 L 90 102.296 90 178.631 L 90 254.966 94.750 257.369 C 97.362 258.691, 102.650 260.753, 106.500 261.951 C 112.997 263.973, 114.792 264.084, 131.500 263.493 C 149.957 262.839, 151.926 263.076, 166.250 267.672 C 167.845 268.184, 168 267.251, 168 257.117 L 168 246 201.684 246 C 233.839 246, 235.565 246.095, 239.698 248.096 C 242.585 249.494, 244.857 251.606, 246.514 254.434 C 248.921 258.541, 249 259.268, 249 277.279 C 249 287.511, 249.374 296.113, 249.831 296.396 C 250.288 296.678, 259.515 293.095, 270.335 288.433 C 281.156 283.771, 292.819 279.236, 296.254 278.355 C 305.959 275.867, 314.076 276.947, 327.250 282.479 C 328.831 283.143, 328.999 282.456, 328.985 275.357 C 328.958 260.961, 324.628 248.628, 316.880 240.880 C 312.891 236.891, 304.095 232.029, 300.832 232.010 C 295.843 231.981, 296.067 230.599, 301.326 228.972 C 317.085 224.096, 326.458 210.271, 328.991 188.164 C 330.322 176.543, 330.294 108.600, 328.956 103.781 C 328.388 101.736, 326.762 98.682, 325.342 96.995 C 319.970 90.611, 327.514 91, 209.198 91 L 101.296 91 97.922 93.274 M 168.659 155.161 C 168.297 166.800, 168 185.041, 168 195.698 L 168 215.073 203.409 214.786 L 238.817 214.500 242.594 211.442 C 250.860 204.749, 250.500 206.501, 250.500 172.999 C 250.500 130.882, 254.190 134.004, 204.409 134.002 L 169.318 134 168.659 155.161 M 461.655 145.543 C 447.341 148.227, 432.305 154.281, 421.080 161.881 C 414.796 166.135, 401.541 179.478, 397.398 185.720 C 392.764 192.701, 389.498 200.234, 386.749 210.281 C 384.690 217.804, 384.506 220.574, 384.569 243 C 384.650 271.716, 385.566 276.588, 394.150 293.999 C 398.790 303.410, 400.424 305.598, 409.913 315.105 C 421.051 326.264, 428.102 331.081, 440.471 335.981 C 454.731 341.631, 461.160 342.505, 488 342.446 C 512.192 342.392, 512.648 342.352, 524.255 339.263 C 537.837 335.649, 548.389 330.871, 555.771 324.993 C 558.627 322.720, 561.422 321.143, 561.983 321.490 C 562.599 321.870, 562.760 324.194, 562.389 327.349 C 561.837 332.042, 562.051 332.907, 564.476 335.789 L 567.178 339 607.443 339 L 647.708 339 650.429 336.478 L 653.150 333.957 652.825 313.977 L 652.500 293.998 658.250 293.999 C 663.558 294, 665.441 294.991, 663 296.500 C 662.392 296.876, 662 304.359, 662 315.604 C 662 333.899, 662.026 334.116, 664.455 336.545 L 666.909 339 765.767 339 L 864.626 339 867.266 336.244 C 869.600 333.808, 869.942 332.557, 870.204 325.494 L 870.500 317.500 875.391 325 C 878.081 329.125, 881.657 333.962, 883.337 335.750 L 886.392 339 924.456 339 L 962.520 339 965.260 336.460 L 968 333.919 968 316.383 L 968 298.846 965.077 295.923 C 963.469 294.315, 961.107 292.984, 959.827 292.965 C 955.277 292.895, 952.788 290.191, 942.954 274.626 C 937.479 265.961, 933 258.634, 933 258.343 C 933 258.052, 935.521 255.044, 938.601 251.657 C 945.567 244, 949.388 237.521, 952.261 228.500 C 956.454 215.328, 954.667 188.109, 948.863 176.731 C 945.173 169.498, 936.060 161.555, 925.745 156.582 C 908.365 148.202, 913.065 148.638, 836.106 148.259 L 767.713 147.921 765.356 150.135 C 763.045 152.307, 763 152.701, 763 171 C 763 189.299, 763.044 189.693, 765.357 191.865 C 766.653 193.083, 769.353 194.345, 771.357 194.670 C 773.360 194.996, 775.011 195.765, 775.024 196.381 C 775.523 219.562, 774.794 291.606, 774.052 292.348 C 773.027 293.373, 766.849 291.989, 762.103 289.671 C 759.607 288.451, 757.532 282.691, 724.048 184 C 716.756 162.509, 712.950 152.688, 711.163 150.750 L 708.626 148 668 148 L 627.374 148 624.677 150.816 C 622.581 153.003, 618.762 163.220, 607.577 196.566 C 599.655 220.180, 592.798 239.500, 592.337 239.500 C 591.877 239.500, 591.217 234.100, 590.872 227.500 C 589.668 204.513, 581.307 187.084, 563.233 169.884 C 551.298 158.526, 539.105 152.021, 520 146.818 C 509.910 144.070, 473.727 143.280, 461.655 145.543 M 474.097 149.079 C 432.826 152.881, 400.744 177.365, 391.920 211.797 C 387.582 228.722, 387.599 256.273, 391.956 273.500 C 398.948 301.139, 420.143 323.616, 448.094 333.032 C 464.859 338.679, 494.233 340.108, 513.539 336.215 C 525.969 333.709, 537.926 329.757, 544.500 325.982 C 550.087 322.774, 560.378 314.334, 562.639 311.105 C 563.450 309.947, 564.763 309, 565.557 309 C 566.723 309, 567 311.025, 567 319.566 C 567 325.377, 567.466 331.002, 568.035 332.066 C 569.031 333.926, 570.527 334, 607.335 334 C 635.763 334, 645.908 333.692, 646.800 332.800 C 647.634 331.966, 648 326.679, 648 315.455 C 648 301.084, 647.799 299.128, 646.171 297.655 C 645.165 296.745, 643.576 296, 642.640 296 C 640.380 296, 639.579 293.655, 640.958 291.078 C 642.011 289.112, 642.900 289, 657.500 289 C 671.731 289, 673.010 289.150, 673.965 290.934 C 675.580 293.952, 675.239 294.826, 671.750 296.614 C 669.962 297.530, 668.169 298.779, 667.765 299.390 C 667.361 300, 667.024 307.532, 667.015 316.128 C 667.004 327.990, 667.323 332.023, 668.341 332.868 C 669.305 333.668, 696.826 333.980, 766.312 333.980 C 860.635 333.978, 862.966 333.932, 863.971 332.055 C 864.537 330.997, 865 324.049, 865 316.616 L 865 303.100 860.500 299.338 C 856.621 296.095, 856 295.054, 856 291.788 C 856 289.705, 856.387 288, 856.860 288 C 857.332 288, 863.702 297.113, 871.014 308.250 C 878.326 319.387, 885.449 329.738, 886.842 331.250 L 889.374 334 924.987 334 C 951.353 334, 960.912 333.688, 961.800 332.800 C 962.628 331.972, 963 326.901, 963 316.455 C 963 299.465, 962.946 299.325, 955.481 297.202 C 953.270 296.573, 950.749 295.482, 949.877 294.779 C 948.259 293.473, 926 258.676, 926 257.453 C 926 257.082, 929.377 253.189, 933.505 248.802 C 948.591 232.765, 952.937 215.861, 948.056 192.205 C 947.001 187.093, 944.993 180.958, 943.595 178.571 C 939.861 172.200, 931.764 165.426, 922.585 160.993 C 906.546 153.248, 910.252 153.582, 836.644 153.239 C 787.863 153.011, 770.426 153.231, 769.394 154.088 C 768.310 154.988, 768 158.758, 768 171.066 C 768 186.281, 768.085 186.946, 770.223 188.443 C 771.445 189.299, 773.582 190.007, 774.973 190.015 C 780.229 190.047, 780.037 187.869, 779.759 244.065 L 779.500 296.500 774.144 297.809 C 769.641 298.910, 768.526 298.897, 767.144 297.732 C 766.240 296.969, 763.641 295.815, 761.369 295.168 C 759.096 294.521, 756.726 293.375, 756.102 292.623 C 755.477 291.870, 744.631 260.978, 731.998 223.972 C 719.365 186.967, 708.278 155.860, 707.360 154.845 C 705.792 153.113, 703.350 153, 667.467 153 C 636.333 153, 629.034 153.254, 628.108 154.369 C 627.483 155.122, 617.049 185.151, 604.921 221.100 C 583.587 284.334, 580.205 293.323, 577.342 294.422 C 575.344 295.189, 575.701 292.922, 578.610 286.374 C 585.436 271.013, 588.363 247.695, 586.090 226.799 C 581.801 187.366, 553.011 157.914, 511.571 150.566 C 500.665 148.633, 485.487 148.030, 474.097 149.079 M 183 174.500 L 183 200 207.943 200 C 232.585 200, 232.905 199.973, 234.443 197.777 C 235.734 195.935, 236 191.917, 236 174.277 C 236 154.333, 235.875 152.875, 234 151 C 232.109 149.109, 230.667 149, 207.500 149 L 183 149 183 174.500 M 186 174.518 L 186 197.037 209.250 196.768 L 232.500 196.500 232.771 175.627 C 232.959 161.075, 232.695 154.338, 231.898 153.377 C 230.990 152.283, 226.163 152, 208.378 152 L 186 152 186 174.518 M 467.655 155.597 C 451.222 158.566, 432.815 166.650, 421.379 175.920 C 410.040 185.112, 401.295 199.220, 396.845 215.500 C 394.954 222.420, 394.658 226.065, 394.658 242.500 C 394.658 258.666, 394.968 262.619, 396.737 269 C 400.075 281.047, 402.796 287.433, 407.902 295.207 C 419.927 313.513, 437.380 325.053, 461.500 330.645 C 472.738 333.251, 501.091 333.273, 512.500 330.686 C 536.067 325.340, 549.646 318.023, 560.803 304.655 C 566.381 297.972, 575.437 279.685, 578.211 269.500 C 580.082 262.632, 580.397 258.811, 580.438 242.500 C 580.494 219.772, 579.776 216.037, 572.531 201.388 C 561.772 179.635, 547.793 167.846, 523 159.617 C 517.225 157.701, 508.980 155.653, 504.678 155.066 C 494.119 153.627, 477.217 153.869, 467.655 155.597 M 463 158.690 C 457.461 159.616, 444.063 164.475, 436.911 168.153 C 408.572 182.725, 394.853 209.198, 396.309 246.500 C 397.177 268.719, 402.518 285.348, 413.398 299.704 C 428.089 319.087, 455.933 331, 486.545 331 C 504.083 331, 526.359 326.031, 539.500 319.187 C 552.744 312.289, 565.395 296.977, 572.612 279.109 C 577.752 266.383, 578.486 261.690, 578.493 241.500 C 578.499 224.007, 578.309 221.945, 576.088 215.508 C 568.707 194.111, 559.762 182.122, 543.324 171.595 C 536.407 167.164, 522.584 160.955, 519.833 161.042 C 519.100 161.066, 520.975 162.120, 524 163.386 C 547.534 173.234, 558.935 183.366, 568.195 202.663 C 575.124 217.105, 576.285 223.628, 575.730 245 C 575.323 260.648, 574.983 263.400, 572.520 271 C 565.455 292.798, 553.040 309.148, 537.676 316.887 C 523.297 324.129, 499.793 328.663, 481.848 327.656 C 455.816 326.195, 436.517 318.592, 422.026 304.090 C 410.191 292.245, 403.406 277.918, 400.562 258.763 C 395.185 222.552, 405.613 192.434, 429.358 175.590 C 439.995 168.045, 455.096 161.437, 467.069 159.088 C 470.279 158.459, 470.673 158.226, 468.500 158.246 C 466.850 158.260, 464.375 158.460, 463 158.690 M 632.525 158.959 C 631.795 160.140, 623.707 183.788, 604.420 241.129 C 585.633 296.985, 585.455 297.378, 577.312 300.980 C 574.940 302.029, 572.972 303.250, 572.938 303.694 C 572.538 308.853, 572.637 327.412, 573.067 328.109 C 573.399 328.646, 587.933 328.917, 608.067 328.763 L 642.500 328.500 642.500 315.041 L 642.500 301.582 639.139 300.895 C 633.151 299.670, 632.479 298.162, 634.663 290.848 L 636.558 284.500 657.321 284.230 L 678.085 283.959 679.650 287.704 C 680.511 289.764, 681.279 293.469, 681.357 295.937 C 681.499 300.387, 681.469 300.429, 677.699 301.063 C 675.609 301.414, 673.457 302.143, 672.917 302.683 C 672.349 303.251, 672.054 308.890, 672.218 316.082 L 672.500 328.500 718 328.500 L 763.500 328.500 763.778 315.329 L 764.057 302.158 758.704 300.602 C 755.761 299.747, 752.585 298.199, 751.647 297.162 C 750.709 296.126, 746.401 284.753, 742.074 271.889 C 734.956 250.728, 709.968 177.555, 705.232 164 L 703.310 158.500 668.222 158.237 C 645.975 158.071, 632.911 158.335, 632.525 158.959 M 773 170.893 C 773 184.889, 773.046 185, 778.891 185 C 780.391 185, 782.491 185.639, 783.559 186.419 C 785.437 187.793, 785.503 189.592, 785.582 242.169 C 785.627 272.051, 785.372 297.617, 785.015 298.982 C 784.380 301.410, 783.396 301.886, 775.750 303.469 L 773 304.038 773 316.530 L 773 329.021 816.250 328.761 L 859.500 328.500 859.784 317.705 C 860.096 305.886, 860.515 306.911, 853 301.111 C 850.585 299.247, 850.489 298.723, 850.173 285.639 C 849.993 278.176, 850.277 271.327, 850.805 270.383 C 851.584 268.992, 855.543 274.335, 871.899 298.849 L 892.035 329.027 924.767 328.764 L 957.500 328.500 957.780 316.898 C 958.091 304.056, 958.107 304.094, 951.440 302.192 C 949.207 301.555, 946.440 300.014, 945.290 298.767 C 942.686 295.942, 918.843 258.101, 918.254 255.859 C 917.970 254.776, 919.353 253.165, 922.323 251.122 C 931.969 244.485, 940.624 231.516, 943.095 219.994 C 944.531 213.297, 943.746 197.566, 941.581 189.667 C 938.376 177.973, 929.796 169.774, 914.617 163.903 C 900.085 158.282, 897.150 158.073, 832.250 158.035 L 773 158 773 170.893 M 634.050 161.440 C 633.393 162.232, 623.015 192.445, 610.988 228.581 C 587.936 297.844, 586.951 300.222, 580.441 302.320 C 575.078 304.049, 574.914 304.478, 575.218 315.899 L 575.500 326.500 606.880 326.764 C 629.631 326.956, 638.646 326.709, 639.663 325.864 C 640.735 324.975, 641 322.318, 640.783 314.612 L 640.500 304.525 635.833 302.312 C 633.266 301.094, 630.892 299.234, 630.556 298.178 C 630.221 297.122, 631.136 293.050, 632.589 289.129 L 635.232 282 657.375 282 L 679.519 282 681.760 288.903 C 685.137 299.309, 684.511 303, 679.371 303 C 675.042 303, 673.999 305.399, 674.015 315.321 C 674.024 320.370, 674.391 325.067, 674.831 325.761 C 675.459 326.750, 684.882 326.966, 718.566 326.761 L 761.500 326.500 761.782 315.899 C 762.098 304.062, 762.245 304.359, 754.691 301.567 C 748.197 299.167, 749.913 303.254, 726.959 235.500 C 705.813 173.078, 701.718 161.444, 700.653 160.765 C 700.019 160.361, 685.043 160.024, 667.372 160.015 C 640.617 160.003, 635.045 160.241, 634.050 161.440 M 775.483 162.213 C 775.168 163.471, 775.043 168.279, 775.205 172.898 L 775.500 181.296 780.205 182.665 C 788.469 185.070, 788 181.362, 788 244.232 C 788 307.320, 788.766 301.659, 779.778 304.974 L 775.500 306.552 775.215 316.156 C 774.970 324.439, 775.164 325.849, 776.632 326.412 C 778.621 327.176, 780.737 325.574, 779.087 324.554 C 778.462 324.167, 778 320.717, 778 316.428 L 778 308.975 783.362 306.604 C 787.581 304.738, 788.966 303.537, 789.862 300.967 C 790.659 298.681, 791 281.476, 790.998 243.601 C 790.997 182.242, 791.197 183.911, 783.500 181.076 C 781.300 180.266, 779.169 179.130, 778.765 178.552 C 777.393 176.588, 777.905 165.323, 779.424 164.063 C 780.494 163.175, 795.217 162.970, 838.674 163.236 C 894.842 163.580, 896.729 163.654, 904.500 165.818 C 920.052 170.149, 930.241 176.170, 935.178 183.946 C 936.730 186.391, 938 187.696, 938 186.846 C 938 184.747, 933.054 178.068, 928.899 174.555 C 924.274 170.646, 913.166 165.500, 903.500 162.786 C 895.681 160.592, 894.152 160.534, 835.778 160.233 L 776.057 159.926 775.483 162.213 M 635.170 164.750 C 634.675 165.713, 624.969 194.445, 613.602 228.600 C 600.263 268.677, 591.793 292.608, 589.717 296.081 C 587.542 299.719, 585.111 302.228, 582.212 303.827 L 577.925 306.191 578.212 314.846 L 578.500 323.500 608 323.500 L 637.500 323.500 637.790 315.291 L 638.080 307.081 634 305 C 627.963 301.920, 627.389 299.814, 630.018 290.397 C 633.558 277.719, 630.561 278.924, 657.795 279.232 L 681.500 279.500 683.781 286.500 C 685.304 291.172, 685.969 295.329, 685.781 299 C 685.519 304.122, 685.294 304.569, 682.500 305.500 C 680.850 306.050, 678.938 306.864, 678.250 307.309 C 676.467 308.463, 676.564 321.393, 678.367 322.889 C 679.347 323.703, 690.877 323.949, 719.117 323.762 L 758.500 323.500 758.791 315.241 C 759.081 306.997, 759.076 306.979, 756.291 306.007 C 751.052 304.177, 748.601 302.481, 746.843 299.470 C 745.876 297.815, 735.211 267.220, 723.143 231.480 C 711.074 195.741, 700.882 165.713, 700.493 164.750 C 699.840 163.135, 697.333 163, 667.928 163 C 638.597 163, 635.999 163.139, 635.170 164.750 M 476.882 189.321 C 467.675 192.762, 462.655 198.186, 460.060 207.500 C 455.394 224.244, 453.585 252.795, 456.363 265.828 C 459.412 280.133, 466.198 290.958, 474.740 295.145 C 478.583 297.028, 481.138 297.480, 488 297.489 C 495.678 297.499, 497.032 297.199, 502 294.388 C 514.975 287.047, 520.259 272.084, 520.200 242.859 C 520.149 217.816, 517.377 206.704, 508.882 197.488 C 502.711 190.793, 498.115 188.724, 488.500 188.312 C 483.420 188.095, 479.180 188.463, 476.882 189.321 M 847.667 190.667 C 847.300 191.033, 847 192.174, 847 193.202 C 847 194.802, 847.308 194.905, 849.141 193.925 C 850.496 193.199, 854.891 192.924, 861.114 193.174 C 871.925 193.608, 873.800 194.436, 879.271 201.197 C 883.497 206.418, 883.846 211.364, 880.513 218.791 C 877.025 226.565, 874.727 228.632, 866.896 231.047 L 860.500 233.018 866.430 232.479 C 869.856 232.168, 873.780 231.063, 875.721 229.863 C 880.360 226.996, 884.681 219.054, 885.516 211.859 C 886.119 206.663, 885.902 205.509, 883.575 201.538 C 880.274 195.906, 875.722 192.404, 869.980 191.081 C 864.986 189.930, 848.705 189.628, 847.667 190.667 M 477.648 192.027 C 473.362 193.312, 468.665 196.856, 466.136 200.714 C 461.578 207.666, 457.978 227.272, 458.035 244.822 C 458.141 277.429, 468.883 295, 488.710 295 C 503.576 295, 512.488 284.952, 516.097 264.119 C 518.290 251.461, 518.462 237.982, 516.595 225 C 514.077 207.496, 507.700 196.714, 497.282 192.348 C 493.749 190.868, 482.149 190.678, 477.648 192.027 M 477.500 194.222 C 467.981 197.597, 464.607 204.011, 461.496 224.653 C 458.545 244.229, 460.284 266.382, 465.663 277.753 C 468.951 284.704, 474.740 290.556, 479.685 291.929 C 490.533 294.942, 501.514 291.474, 507.172 283.250 C 513.070 274.678, 514.278 268.790, 514.767 246.250 C 515.383 217.802, 513.815 210.346, 505.207 200.799 C 500.153 195.194, 495.036 193.030, 487 193.101 C 483.425 193.132, 479.150 193.637, 477.500 194.222 M 851.571 196.571 C 850.285 197.858, 850 200.815, 850 212.871 C 850 222.994, 850.375 227.975, 851.200 228.800 C 853.779 231.379, 869.675 229.506, 873.343 226.192 C 875.969 223.820, 879.599 216.231, 880.315 211.620 C 881.370 204.817, 875.466 197.400, 867.818 195.922 C 860.622 194.531, 853.320 194.823, 851.571 196.571 M 482.123 198.959 C 477.473 200.116, 473.816 202.989, 471.805 207.065 C 466.520 217.775, 464.067 249.853, 467.426 264.335 C 470.985 279.683, 477.460 287, 487.482 287 C 499.048 287, 505.223 279.791, 508.549 262.407 C 510.212 253.715, 510.423 234.771, 508.971 224.500 C 506.406 206.356, 495.208 195.703, 482.123 198.959 M 856.750 201.571 C 856.337 201.990, 856 207.208, 856 213.167 L 856 224 859.250 223.994 C 861.038 223.991, 864.222 223.511, 866.328 222.926 C 869.587 222.021, 870.514 221.093, 872.568 216.682 C 875.659 210.043, 875.612 208.716, 872.149 204.840 C 869.680 202.078, 868.505 201.593, 863.399 201.229 C 860.154 200.998, 857.163 201.151, 856.750 201.571 M 482.500 204.529 C 480.300 205.321, 478.439 205.977, 478.364 205.985 C 478.289 205.993, 477.456 207.627, 476.512 209.615 C 474.285 214.308, 471.381 228.580, 470.501 239.154 C 469.131 255.608, 475.064 276.913, 482.017 280.509 C 488.758 283.995, 495.760 281.235, 499.483 273.623 C 503.860 264.677, 505.251 255.358, 504.724 238.500 C 504.081 217.921, 500.884 209.532, 491.945 204.972 C 487.419 202.663, 487.650 202.674, 482.500 204.529 M 656.543 207.083 C 651.986 219.450, 643.132 247.405, 643.556 248.090 C 643.865 248.591, 650.166 249, 657.559 249 C 669.699 249, 670.999 248.831, 670.985 247.250 C 670.963 244.735, 659.172 207.772, 658.025 206.625 C 657.412 206.012, 656.877 206.178, 656.543 207.083 M 860.409 207.377 C 860.118 208.134, 860.020 210.943, 860.190 213.618 C 860.547 219.212, 862.564 220.436, 865.913 217.087 C 869.236 213.764, 869.697 209.983, 867.040 207.831 C 864.364 205.664, 861.151 205.444, 860.409 207.377 M 651.120 228.712 C 648.285 236.845, 645.974 244.063, 645.983 244.750 C 645.996 245.673, 648.876 246, 657 246 C 665.254 246, 668 245.681, 668 244.724 C 668 242.166, 658.335 214.612, 657.319 214.273 C 656.744 214.081, 653.954 220.579, 651.120 228.712 M 653.005 231.484 C 651.249 236.755, 650.065 241.728, 650.375 242.534 C 650.789 243.613, 652.646 244, 657.410 244 C 660.969 244, 664.114 243.624, 664.398 243.165 C 665.168 241.919, 658.683 222.689, 657.349 222.265 C 656.668 222.049, 654.896 225.810, 653.005 231.484 M 935.512 229.734 C 931.749 236.921, 923.988 244.861, 916.712 248.968 C 913.570 250.740, 911 252.662, 911 253.239 C 911 254.372, 937.699 297.077, 941.154 301.469 C 942.310 302.939, 945.336 305.127, 947.878 306.332 L 952.500 308.522 952.796 315.854 C 952.969 320.139, 952.637 323.733, 951.997 324.503 C 950.475 326.337, 952.616 327.564, 954.544 325.964 C 955.603 325.085, 955.996 322.538, 955.985 316.628 C 955.976 312.157, 955.639 308.029, 955.235 307.453 C 954.831 306.877, 951.941 305.170, 948.814 303.661 C 943.847 301.263, 942.449 299.878, 937.756 292.708 C 926.531 275.560, 914 255.274, 914 254.253 C 914 253.668, 915.965 252.038, 918.367 250.631 C 924.277 247.167, 932.466 238.001, 936.124 230.754 C 937.778 227.478, 938.978 224.645, 938.791 224.458 C 938.605 224.271, 937.129 226.645, 935.512 229.734 M 847.667 261.667 C 847.300 262.033, 847.029 263.721, 847.063 265.417 C 847.123 268.330, 847.178 268.372, 848.057 266.180 C 850.188 260.866, 852.528 263.587, 872.823 294.989 C 886.231 315.734, 893.163 325.590, 894.514 325.829 C 896.335 326.151, 896.360 326.069, 894.818 324.840 C 893.893 324.103, 884.951 310.225, 874.946 294 C 864.941 277.775, 856.066 263.712, 855.223 262.750 C 853.719 261.033, 848.980 260.353, 847.667 261.667 M 847.068 299.290 C 847.030 300.274, 848.800 302.844, 851 305 C 854.867 308.791, 855 309.140, 855 315.526 C 855 319.159, 854.549 322.975, 853.997 324.005 C 852.841 326.165, 854.526 327.874, 856.181 326.219 C 857.443 324.957, 858.072 311.319, 856.998 308.494 C 856.559 307.339, 854.601 305.299, 852.647 303.960 C 850.693 302.621, 848.653 300.620, 848.115 299.513 C 847.248 297.732, 847.128 297.706, 847.068 299.290 M 90.222 314.147 L 90.500 328.464 129 343.605 L 167.500 358.746 167.770 337.693 C 167.919 326.115, 167.694 316.315, 167.270 315.918 C 166.847 315.520, 157.950 313.543, 147.500 311.525 C 137.050 309.507, 125.575 307.231, 122 306.467 C 113.484 304.648, 97.369 301.292, 93.222 300.475 L 89.944 299.829 90.222 314.147 M 250 345.481 C 250 352.916, 250.224 359, 250.498 359 C 251.908 359, 294.020 341.687, 293.609 341.276 C 293.344 341.011, 289.836 340.190, 285.813 339.453 C 278.959 338.196, 257.243 333.698, 252.250 332.501 C 250.001 331.962, 250 331.968, 250 345.481" stroke="none" fill="#237eb2" fill-rule="evenodd"/></svg>